<?xml version="1.0" encoding="UTF-8" standalone="no"?>
<!-- Created with Inkscape (http://www.inkscape.org/) -->

<svg
   xmlns:dc="http://purl.org/dc/elements/1.1/"
   xmlns:cc="http://creativecommons.org/ns#"
   xmlns:rdf="http://www.w3.org/1999/02/22-rdf-syntax-ns#"
   xmlns:svg="http://www.w3.org/2000/svg"
   xmlns="http://www.w3.org/2000/svg"
   xmlns:sodipodi="http://sodipodi.sourceforge.net/DTD/sodipodi-0.dtd"
   xmlns:inkscape="http://www.inkscape.org/namespaces/inkscape"
   version="1.1"
   id="svg1239"
   xml:space="preserve"
   width="527.7959"
   height="400.78101"
   viewBox="-0.1 0 527.7959 400.78101"
   sodipodi:docname="HL1.svg"
   inkscape:version="0.92.1 r15371"><metadata
     id="metadata1245"><rdf:RDF><cc:Work
         rdf:about=""><dc:format>image/svg+xml</dc:format><dc:type
           rdf:resource="http://purl.org/dc/dcmitype/StillImage" /><dc:title></dc:title></cc:Work></rdf:RDF></metadata><defs
     id="defs1243"><clipPath
       clipPathUnits="userSpaceOnUse"
       id="clipPath1257"><path
         d="M 0,0 H 2289.17 V 1784.74 H 0 Z"
         id="path1255"
         inkscape:connector-curvature="0" /></clipPath><clipPath
       clipPathUnits="userSpaceOnUse"
       id="clipPath1391"><path
         d="M 409.81,296.08 H 2142.09 V 1660.01 H 409.81 Z"
         id="path1389"
         inkscape:connector-curvature="0"
         style="clip-rule:evenodd" /></clipPath></defs><sodipodi:namedview
     pagecolor="#ffffff"
     bordercolor="#666666"
     borderopacity="1"
     objecttolerance="10"
     gridtolerance="10"
     guidetolerance="10"
     inkscape:pageopacity="0"
     inkscape:pageshadow="2"
     inkscape:window-width="510"
     inkscape:window-height="731"
     id="namedview1241"
     showgrid="false"
     viewbox-x="-0.1"
     fit-margin-top="0"
     fit-margin-left="0"
     fit-margin-right="0"
     fit-margin-bottom="0"
     inkscape:zoom="0.4469697"
     inkscape:cx="267.5322"
     inkscape:cy="38.639325"
     inkscape:window-x="512"
     inkscape:window-y="18"
     inkscape:window-maximized="0"
     inkscape:current-layer="g1247" /><g
     id="g1247"
     inkscape:groupmode="layer"
     inkscape:label="201704_KissAndrasPhD_HL"
     transform="matrix(1.3333333,0,0,-1.3333333,-144.97823,939.25619)"><g
       id="g1249"
       transform="matrix(4.0694,0,0,3.1667,177.56,492.04)"><g
         id="g1251"
         transform="scale(0.031452,0.040342)"><g
           id="g1253"
           clip-path="url(#clipPath1257)"><g
             id="g1259"><g
               id="g1261"><text
                 transform="matrix(1,0,0,-1,387.28,190.11)"
                 style="font-variant:normal;font-weight:normal;font-size:81.05699921px;font-family:'Arabic Transparent';-inkscape-font-specification:'Arabic Transparent';writing-mode:lr-tb;fill:#000000;fill-opacity:1;fill-rule:nonzero;stroke:none"
                 id="text1265"><tspan
                   x="0"
                   y="0"
                   id="tspan1263">0</tspan></text>
</g><g
               id="g1267"><text
                 transform="matrix(1,0,0,-1,727.29,190.11)"
                 style="font-variant:normal;font-weight:normal;font-size:81.05699921px;font-family:'Arabic Transparent';-inkscape-font-specification:'Arabic Transparent';writing-mode:lr-tb;fill:#000000;fill-opacity:1;fill-rule:nonzero;stroke:none"
                 id="text1271"><tspan
                   x="0 45.042393 90.084785"
                   y="0"
                   sodipodi:role="line"
                   id="tspan1269">200</tspan></text>
</g><g
               id="g1273"><text
                 transform="matrix(1,0,0,-1,1111.56,190.11)"
                 style="font-variant:normal;font-weight:normal;font-size:81.05699921px;font-family:'Arabic Transparent';-inkscape-font-specification:'Arabic Transparent';writing-mode:lr-tb;fill:#000000;fill-opacity:1;fill-rule:nonzero;stroke:none"
                 id="text1277"><tspan
                   x="0 45.042393 90.084785"
                   y="0"
                   sodipodi:role="line"
                   id="tspan1275">400</tspan></text>
</g><g
               id="g1279"><text
                 transform="matrix(1,0,0,-1,1496.61,190.11)"
                 style="font-variant:normal;font-weight:normal;font-size:81.05699921px;font-family:'Arabic Transparent';-inkscape-font-specification:'Arabic Transparent';writing-mode:lr-tb;fill:#000000;fill-opacity:1;fill-rule:nonzero;stroke:none"
                 id="text1283"><tspan
                   x="0 45.042393 90.084785"
                   y="0"
                   sodipodi:role="line"
                   id="tspan1281">600</tspan></text>
</g><g
               id="g1285"><text
                 transform="matrix(1,0,0,-1,1881.64,190.11)"
                 style="font-variant:normal;font-weight:normal;font-size:81.05699921px;font-family:'Arabic Transparent';-inkscape-font-specification:'Arabic Transparent';writing-mode:lr-tb;fill:#000000;fill-opacity:1;fill-rule:nonzero;stroke:none"
                 id="text1289"><tspan
                   x="0 45.042393 90.084785"
                   y="0"
                   sodipodi:role="line"
                   id="tspan1287">800</tspan></text>
</g><g
               id="g1291"><text
                 transform="matrix(1,0,0,-1,204.91,273.54)"
                 style="font-variant:normal;font-weight:normal;font-size:81.05699921px;font-family:'Arabic Transparent';-inkscape-font-specification:'Arabic Transparent';writing-mode:lr-tb;fill:#000000;fill-opacity:1;fill-rule:nonzero;stroke:none"
                 id="text1295"><tspan
                   x="0 26.991982 72.059669 117.12737"
                   y="0"
                   sodipodi:role="line"
                   id="tspan1293">-120</tspan></text>
</g><g
               id="g1297"><text
                 transform="matrix(1,0,0,-1,204.91,483.19)"
                 style="font-variant:normal;font-weight:normal;font-size:81.05699921px;font-family:'Arabic Transparent';-inkscape-font-specification:'Arabic Transparent';writing-mode:lr-tb;fill:#000000;fill-opacity:1;fill-rule:nonzero;stroke:none"
                 id="text1301"><tspan
                   x="0 26.991982 72.059669 117.12737"
                   y="0"
                   sodipodi:role="line"
                   id="tspan1299">-100</tspan></text>
</g><g
               id="g1303"><text
                 transform="matrix(1,0,0,-1,249.92,692.85)"
                 style="font-variant:normal;font-weight:normal;font-size:81.05699921px;font-family:'Arabic Transparent';-inkscape-font-specification:'Arabic Transparent';writing-mode:lr-tb;fill:#000000;fill-opacity:1;fill-rule:nonzero;stroke:none"
                 id="text1307"><tspan
                   x="0 26.991982 72.059669"
                   y="0"
                   sodipodi:role="line"
                   id="tspan1305">-80</tspan></text>
</g><g
               id="g1309"><text
                 transform="matrix(1,0,0,-1,249.92,902.52)"
                 style="font-variant:normal;font-weight:normal;font-size:81.05699921px;font-family:'Arabic Transparent';-inkscape-font-specification:'Arabic Transparent';writing-mode:lr-tb;fill:#000000;fill-opacity:1;fill-rule:nonzero;stroke:none"
                 id="text1313"><tspan
                   x="0 26.991982 72.059669"
                   y="0"
                   sodipodi:role="line"
                   id="tspan1311">-60</tspan></text>
</g><g
               id="g1315"><text
                 transform="matrix(1,0,0,-1,249.92,1112.17)"
                 style="font-variant:normal;font-weight:normal;font-size:81.05699921px;font-family:'Arabic Transparent';-inkscape-font-specification:'Arabic Transparent';writing-mode:lr-tb;fill:#000000;fill-opacity:1;fill-rule:nonzero;stroke:none"
                 id="text1319"><tspan
                   x="0 26.991982 72.059669"
                   y="0"
                   sodipodi:role="line"
                   id="tspan1317">-40</tspan></text>
</g><g
               id="g1321"><text
                 transform="matrix(1,0,0,-1,249.92,1321.84)"
                 style="font-variant:normal;font-weight:normal;font-size:81.05699921px;font-family:'Arabic Transparent';-inkscape-font-specification:'Arabic Transparent';writing-mode:lr-tb;fill:#000000;fill-opacity:1;fill-rule:nonzero;stroke:none"
                 id="text1325"><tspan
                   x="0 26.991982 72.059669"
                   y="0"
                   sodipodi:role="line"
                   id="tspan1323">-20</tspan></text>
</g><g
               id="g1327"><text
                 transform="matrix(1,0,0,-1,321.98,1531.51)"
                 style="font-variant:normal;font-weight:normal;font-size:81.05699921px;font-family:'Arabic Transparent';-inkscape-font-specification:'Arabic Transparent';writing-mode:lr-tb;fill:#000000;fill-opacity:1;fill-rule:nonzero;stroke:none"
                 id="text1331"><tspan
                   x="0"
                   y="0"
                   id="tspan1329">0</tspan></text>
</g><path
               d="m 409.81,271.29 v 25.54"
               style="fill:none;stroke:#000000;stroke-width:5.25209999;stroke-linecap:butt;stroke-linejoin:round;stroke-miterlimit:10;stroke-dasharray:none;stroke-opacity:1"
               id="path1333"
               inkscape:connector-curvature="0" /><path
               d="m 601.94,284.06 v 12.77"
               style="fill:none;stroke:#000000;stroke-width:5.25209999;stroke-linecap:butt;stroke-linejoin:round;stroke-miterlimit:10;stroke-dasharray:none;stroke-opacity:1"
               id="path1335"
               inkscape:connector-curvature="0" /><path
               d="m 794.84,271.29 v 25.54"
               style="fill:none;stroke:#000000;stroke-width:5.25209999;stroke-linecap:butt;stroke-linejoin:round;stroke-miterlimit:10;stroke-dasharray:none;stroke-opacity:1"
               id="path1337"
               inkscape:connector-curvature="0" /><path
               d="m 986.99,284.06 v 12.77"
               style="fill:none;stroke:#000000;stroke-width:5.25209999;stroke-linecap:butt;stroke-linejoin:round;stroke-miterlimit:10;stroke-dasharray:none;stroke-opacity:1"
               id="path1339"
               inkscape:connector-curvature="0" /><path
               d="m 1179.11,271.29 v 25.54"
               style="fill:none;stroke:#000000;stroke-width:5.25209999;stroke-linecap:butt;stroke-linejoin:round;stroke-miterlimit:10;stroke-dasharray:none;stroke-opacity:1"
               id="path1341"
               inkscape:connector-curvature="0" /><path
               d="m 1372.01,284.06 v 12.77"
               style="fill:none;stroke:#000000;stroke-width:5.25209999;stroke-linecap:butt;stroke-linejoin:round;stroke-miterlimit:10;stroke-dasharray:none;stroke-opacity:1"
               id="path1343"
               inkscape:connector-curvature="0" /><path
               d="m 1564.16,271.29 v 25.54"
               style="fill:none;stroke:#000000;stroke-width:5.25209999;stroke-linecap:butt;stroke-linejoin:round;stroke-miterlimit:10;stroke-dasharray:none;stroke-opacity:1"
               id="path1345"
               inkscape:connector-curvature="0" /><path
               d="m 1756.29,284.06 v 12.77"
               style="fill:none;stroke:#000000;stroke-width:5.25209999;stroke-linecap:butt;stroke-linejoin:round;stroke-miterlimit:10;stroke-dasharray:none;stroke-opacity:1"
               id="path1347"
               inkscape:connector-curvature="0" /><path
               d="m 1949.19,271.29 v 25.54"
               style="fill:none;stroke:#000000;stroke-width:5.25209999;stroke-linecap:butt;stroke-linejoin:round;stroke-miterlimit:10;stroke-dasharray:none;stroke-opacity:1"
               id="path1349"
               inkscape:connector-curvature="0" /><path
               d="m 2141.31,284.06 v 12.77"
               style="fill:none;stroke:#000000;stroke-width:5.25209999;stroke-linecap:butt;stroke-linejoin:round;stroke-miterlimit:10;stroke-dasharray:none;stroke-opacity:1"
               id="path1351"
               inkscape:connector-curvature="0" /><path
               d="m 409.81,296.83 h 1731.5"
               style="fill:none;stroke:#000000;stroke-width:5.25209999;stroke-linecap:butt;stroke-linejoin:round;stroke-miterlimit:10;stroke-dasharray:none;stroke-opacity:1"
               id="path1353"
               inkscape:connector-curvature="0" /><path
               d="m 384.28,296.83 h 25.53"
               style="fill:none;stroke:#000000;stroke-width:5.25209999;stroke-linecap:butt;stroke-linejoin:round;stroke-miterlimit:10;stroke-dasharray:none;stroke-opacity:1"
               id="path1355"
               inkscape:connector-curvature="0" /><path
               d="m 397.03,402.04 h 12.78"
               style="fill:none;stroke:#000000;stroke-width:5.25209999;stroke-linecap:butt;stroke-linejoin:round;stroke-miterlimit:10;stroke-dasharray:none;stroke-opacity:1"
               id="path1357"
               inkscape:connector-curvature="0" /><path
               d="m 384.28,506.5 h 25.53"
               style="fill:none;stroke:#000000;stroke-width:5.25209999;stroke-linecap:butt;stroke-linejoin:round;stroke-miterlimit:10;stroke-dasharray:none;stroke-opacity:1"
               id="path1359"
               inkscape:connector-curvature="0" /><path
               d="m 397.03,611.68 h 12.78"
               style="fill:none;stroke:#000000;stroke-width:5.25209999;stroke-linecap:butt;stroke-linejoin:round;stroke-miterlimit:10;stroke-dasharray:none;stroke-opacity:1"
               id="path1361"
               inkscape:connector-curvature="0" /><path
               d="m 384.28,716.14 h 25.53"
               style="fill:none;stroke:#000000;stroke-width:5.25209999;stroke-linecap:butt;stroke-linejoin:round;stroke-miterlimit:10;stroke-dasharray:none;stroke-opacity:1"
               id="path1363"
               inkscape:connector-curvature="0" /><path
               d="m 397.03,821.35 h 12.78"
               style="fill:none;stroke:#000000;stroke-width:5.25209999;stroke-linecap:butt;stroke-linejoin:round;stroke-miterlimit:10;stroke-dasharray:none;stroke-opacity:1"
               id="path1365"
               inkscape:connector-curvature="0" /><path
               d="m 384.28,925.81 h 25.53"
               style="fill:none;stroke:#000000;stroke-width:5.25209999;stroke-linecap:butt;stroke-linejoin:round;stroke-miterlimit:10;stroke-dasharray:none;stroke-opacity:1"
               id="path1367"
               inkscape:connector-curvature="0" /><path
               d="m 397.03,1031.02 h 12.78"
               style="fill:none;stroke:#000000;stroke-width:5.25209999;stroke-linecap:butt;stroke-linejoin:round;stroke-miterlimit:10;stroke-dasharray:none;stroke-opacity:1"
               id="path1369"
               inkscape:connector-curvature="0" /><path
               d="m 384.28,1135.48 h 25.53"
               style="fill:none;stroke:#000000;stroke-width:5.25209999;stroke-linecap:butt;stroke-linejoin:round;stroke-miterlimit:10;stroke-dasharray:none;stroke-opacity:1"
               id="path1371"
               inkscape:connector-curvature="0" /><path
               d="m 397.03,1240.66 h 12.78"
               style="fill:none;stroke:#000000;stroke-width:5.25209999;stroke-linecap:butt;stroke-linejoin:round;stroke-miterlimit:10;stroke-dasharray:none;stroke-opacity:1"
               id="path1373"
               inkscape:connector-curvature="0" /><path
               d="m 384.28,1345.12 h 25.53"
               style="fill:none;stroke:#000000;stroke-width:5.25209999;stroke-linecap:butt;stroke-linejoin:round;stroke-miterlimit:10;stroke-dasharray:none;stroke-opacity:1"
               id="path1375"
               inkscape:connector-curvature="0" /><path
               d="m 397.03,1450.33 h 12.78"
               style="fill:none;stroke:#000000;stroke-width:5.25209999;stroke-linecap:butt;stroke-linejoin:round;stroke-miterlimit:10;stroke-dasharray:none;stroke-opacity:1"
               id="path1377"
               inkscape:connector-curvature="0" /><path
               d="m 384.28,1554.79 h 25.53"
               style="fill:none;stroke:#000000;stroke-width:5.25209999;stroke-linecap:butt;stroke-linejoin:round;stroke-miterlimit:10;stroke-dasharray:none;stroke-opacity:1"
               id="path1379"
               inkscape:connector-curvature="0" /><path
               d="m 397.03,1660 h 12.78"
               style="fill:none;stroke:#000000;stroke-width:5.25209999;stroke-linecap:butt;stroke-linejoin:round;stroke-miterlimit:10;stroke-dasharray:none;stroke-opacity:1"
               id="path1381"
               inkscape:connector-curvature="0" /><path
               d="M 409.81,296.83 V 1660"
               style="fill:none;stroke:#000000;stroke-width:5.25209999;stroke-linecap:butt;stroke-linejoin:round;stroke-miterlimit:10;stroke-dasharray:none;stroke-opacity:1"
               id="path1383"
               inkscape:connector-curvature="0" /><g
               id="g1385"><g
                 id="g1387"
                 clip-path="url(#clipPath1391)"><path
                   d="m 409.81,1554.79 h 0.75 v -0.75 -1.5 l 0.75,-3.01 v -4.5 l 0.75,-8.27 0.75,-12.04 0.75,-18.78 0.75,-25.54 0.75,-33.07 1.5,-40.59 2.25,-48.82 2.25,-58.62 2.26,-66.15 3.75,-70.63 4.5,-69.13 6,-58.62 6.75,-39.83 9.01,-21.03 11.25,-9.02 14.28,-2.25 18.01,-1.5 h 22.51 l 28.53,-0.75 h 36.02 45.04 l 56.27,-0.75 h 71.31 90.08 113.32 l 27.04,-0.76 h 0.75 v -0.75 -1.5 l 0.75,-2.28 v -3.75 l 0.75,-6.76 0.75,-11.27 0.75,-15.77 0.75,-21.06 0.75,-26.29 1.5,-32.33 2.25,-36.05 2.25,-39.09 2.25,-39.08 3.75,-36.81 4.51,-32.32 6,-25.54 6.75,-19.55 9,-14.28 11.26,-11.26 14.28,-9.77 18.01,-7.51 22.5,-6.01 28.52,-6.03 36.04,-5.26 45.04,-4.51 56.27,-4.5 71.3,-3.76 90.09,-3 113.32,-3.01 27.03,-0.75 h 0.75 v -0.75 l 0.75,-0.75 v -1.5 l 0.75,-1.51 0.75,-2.25 0.75,-3.76 0.75,-4.5 0.75,-5.26 1.51,-6.01 2.25,-6.03 2.25,-6.01 2.25,-6.01 3.75,-6.01 4.5,-6.01 6,-5.26 6.76,-5.26 9,-5.25 11.25,-4.51 14.26,-5.26 18.03,-4.51 22.51,-4.53 28.51,-4.5 36.04,-3.76 45.04,-4.51 56.28,-4.5 71.3,-3.76 90.08,-4.51 113.32,-4.5 27.01,-0.76"
                   style="fill:none;stroke:#000000;stroke-width:9.75389957;stroke-linecap:butt;stroke-linejoin:round;stroke-miterlimit:10;stroke-dasharray:none;stroke-opacity:1"
                   id="path1393"
                   inkscape:connector-curvature="0" /></g></g><g
               id="g1395"><text
                 transform="matrix(1,0,0,-1,1727.03,473.42)"
                 style="font-variant:normal;font-weight:normal;font-size:102.83999634px;font-family:'Arabic Transparent';-inkscape-font-specification:'Arabic Transparent';writing-mode:lr-tb;fill:#000000;fill-opacity:1;fill-rule:nonzero;stroke:none"
                 id="text1399"><tspan
                   x="0 57.047039"
                   y="0"
                   sodipodi:role="line"
                   id="tspan1397">10</tspan></text>
<text
                 transform="matrix(1,0,0,-1,1841.1,529.78)"
                 style="font-variant:normal;font-weight:normal;font-size:62.29899979px;font-family:'Arabic Transparent';-inkscape-font-specification:'Arabic Transparent';writing-mode:lr-tb;fill:#000000;fill-opacity:1;fill-rule:nonzero;stroke:none"
                 id="text1403"><tspan
                   x="0 21.008568"
                   y="0"
                   sodipodi:role="line"
                   id="tspan1401">-6</tspan></text>
<text
                 transform="matrix(1,0,0,-1,1925.1515,473.42)"
                 style="font-variant:normal;font-weight:normal;font-size:102.83999634px;font-family:'Arabic Transparent';-inkscape-font-specification:'Arabic Transparent';writing-mode:lr-tb;fill:#000000;fill-opacity:1;fill-rule:nonzero;stroke:none"
                 id="text1407"><tspan
                   x="0"
                   y="0"
                   id="tspan1405">M</tspan></text>
</g><g
               id="g1409"><text
                 transform="matrix(1,0,0,-1,1157.35,606.42)"
                 style="font-variant:normal;font-weight:normal;font-size:102.83999634px;font-family:'Arabic Transparent';-inkscape-font-specification:'Arabic Transparent';writing-mode:lr-tb;fill:#000000;fill-opacity:1;fill-rule:nonzero;stroke:none"
                 id="text1413"><tspan
                   x="0 57.047039"
                   y="0"
                   sodipodi:role="line"
                   id="tspan1411">10</tspan></text>
<text
                 transform="matrix(1,0,0,-1,1271.45,662.78)"
                 style="font-variant:normal;font-weight:normal;font-size:62.29899979px;font-family:'Arabic Transparent';-inkscape-font-specification:'Arabic Transparent';writing-mode:lr-tb;fill:#000000;fill-opacity:1;fill-rule:nonzero;stroke:none"
                 id="text1417"><tspan
                   x="0 21.008568"
                   y="0"
                   sodipodi:role="line"
                   id="tspan1415">-5</tspan></text>
<text
                 transform="matrix(1,0,0,-1,1355.4815,606.42)"
                 style="font-variant:normal;font-weight:normal;font-size:102.83999634px;font-family:'Arabic Transparent';-inkscape-font-specification:'Arabic Transparent';writing-mode:lr-tb;fill:#000000;fill-opacity:1;fill-rule:nonzero;stroke:none"
                 id="text1421"><tspan
                   x="0"
                   y="0"
                   id="tspan1419">M</tspan></text>
</g><g
               id="g1423"><text
                 transform="matrix(7.5e-8,1,1,-7.5e-8,142.61,702.62)"
                 style="font-variant:normal;font-weight:normal;font-size:103.58999634px;font-family:'Arabic Transparent';-inkscape-font-specification:'Arabic Transparent';writing-mode:lr-tb;fill:#000000;fill-opacity:1;fill-rule:nonzero;stroke:none"
                 id="text1427"><tspan
                   x="0 69.094528 155.38499 218.6785 246.95856 275.75659 303.93307 390.22354"
                   y="0"
                   sodipodi:role="line"
                   id="tspan1425">EMF / mV</tspan></text>
</g><g
               id="g1429"><text
                 transform="matrix(1,0,0,-1,1192.62,37.558)"
                 style="font-style:italic;font-variant:normal;font-weight:normal;font-size:102.83999634px;font-family:'Arabic Transparent';-inkscape-font-specification:'Arabic Transparent Italic';writing-mode:lr-tb;fill:#000000;fill-opacity:1;fill-rule:nonzero;stroke:none"
                 id="text1433"><tspan
                   x="0"
                   y="0"
                   id="tspan1431">t</tspan></text>
<text
                 transform="matrix(1,0,0,-1,1249.6615,37.558)"
                 style="font-variant:normal;font-weight:normal;font-size:102.83999634px;font-family:'Arabic Transparent';-inkscape-font-specification:'Arabic Transparent';writing-mode:lr-tb;fill:#000000;fill-opacity:1;fill-rule:nonzero;stroke:none"
                 id="text1437"><tspan
                   x="0 28.51152 57.023041"
                   y="0"
                   sodipodi:role="line"
                   id="tspan1435">/ s</tspan></text>
</g><g
               id="g1439"><text
                 transform="matrix(1,0,0,-1,574.17,994.94)"
                 style="font-variant:normal;font-weight:normal;font-size:102.83999634px;font-family:'Arabic Transparent';-inkscape-font-specification:'Arabic Transparent';writing-mode:lr-tb;fill:#000000;fill-opacity:1;fill-rule:nonzero;stroke:none"
                 id="text1443"><tspan
                   x="0 57.047039"
                   y="0"
                   sodipodi:role="line"
                   id="tspan1441">10</tspan></text>
<text
                 transform="matrix(1,0,0,-1,688.25,1051.3)"
                 style="font-variant:normal;font-weight:normal;font-size:62.29899979px;font-family:'Arabic Transparent';-inkscape-font-specification:'Arabic Transparent';writing-mode:lr-tb;fill:#000000;fill-opacity:1;fill-rule:nonzero;stroke:none"
                 id="text1447"><tspan
                   x="0 21.008568"
                   y="0"
                   sodipodi:role="line"
                   id="tspan1445">-4</tspan></text>
<text
                 transform="matrix(1,0,0,-1,772.30152,994.94)"
                 style="font-variant:normal;font-weight:normal;font-size:102.83999634px;font-family:'Arabic Transparent';-inkscape-font-specification:'Arabic Transparent';writing-mode:lr-tb;fill:#000000;fill-opacity:1;fill-rule:nonzero;stroke:none"
                 id="text1451"><tspan
                   x="0"
                   y="0"
                   id="tspan1449">M</tspan></text>
</g></g></g></g></g><text
       transform="matrix(1,0,0,-1,108.02,467.35)"
       style="font-variant:normal;font-weight:bold;font-size:12px;font-family:Calibri;-inkscape-font-specification:Calibri-Bold;writing-mode:lr-tb;fill:#000000;fill-opacity:1;fill-rule:nonzero;stroke:none"
       id="text1455"><tspan
         x="0 5.5079999 8.5080004 14.148 20.615999 24.924 30.924 33.672001 39.672001"
         y="0"
         sodipodi:role="line"
         id="tspan1453">Figure 1.</tspan></text>
<text
       transform="matrix(1,0,0,-1,164.18,467.35)"
       style="font-variant:normal;font-weight:normal;font-size:12px;font-family:Calibri;-inkscape-font-specification:Calibri;writing-mode:lr-tb;fill:#000000;fill-opacity:1;fill-rule:nonzero;stroke:none"
       id="text1459"><tspan
         x="0 7.7880001 13.764 17.976 24.323999"
         y="0"
         sodipodi:role="line"
         id="tspan1457">Nerns</tspan></text>
<text
       transform="matrix(1,0,0,-1,193.13,467.35)"
       style="font-variant:normal;font-weight:normal;font-size:12px;font-family:Calibri;-inkscape-font-specification:Calibri;writing-mode:lr-tb;fill:#000000;fill-opacity:1;fill-rule:nonzero;stroke:none"
       id="text1463"><tspan
         x="0"
         y="0"
         id="tspan1461">t</tspan></text>
<text
       transform="matrix(1,0,0,-1,197.21,467.35)"
       style="font-variant:normal;font-weight:normal;font-size:12px;font-family:Calibri;-inkscape-font-specification:Calibri;writing-mode:lr-tb;fill:#000000;fill-opacity:1;fill-rule:nonzero;stroke:none"
       id="text1467"><tspan
         x="0"
         y="0"
         id="tspan1465">-</tspan></text>
<text
       transform="matrix(1,0,0,-1,200.93,467.35)"
       style="font-variant:normal;font-weight:normal;font-size:12px;font-family:Calibri;-inkscape-font-specification:Calibri;writing-mode:lr-tb;fill:#000000;fill-opacity:1;fill-rule:nonzero;stroke:none"
       id="text1471"><tspan
         x="0 6.204 8.8800001 14.628 20.988001 26.028"
         y="0"
         sodipodi:role="line"
         id="tspan1469">Planck</tspan></text>
<text
       transform="matrix(1,0,0,-1,232.37,467.35)"
       style="font-variant:normal;font-weight:normal;font-size:12px;font-family:Calibri;-inkscape-font-specification:Calibri;writing-mode:lr-tb;fill:#000000;fill-opacity:1;fill-rule:nonzero;stroke:none"
       id="text1475"><tspan
         x="0"
         y="0"
         id="tspan1473">-</tspan></text>
<text
       transform="matrix(1,0,0,-1,236.09,467.35)"
       style="font-variant:normal;font-weight:normal;font-size:12px;font-family:Calibri;-inkscape-font-specification:Calibri;writing-mode:lr-tb;fill:#000000;fill-opacity:1;fill-rule:nonzero;stroke:none"
       id="text1479"><tspan
         x="0 6.204 12.588 15.348 20.040001 24.732 30.948 37.296001 40.164001 44.855999 47.484001 57.071999 63.431999 66.192001 71.940002 76.019997 78.660004 84.984001 91.367996 94.115997 100.44 104.1 106.944 110.904 117.252 123.228 126.12 130.2 136.17599 140.868 147.228 153.468 159.81599 164.37601 170.35201 173.244 179.56799 183.228 186.07201"
         y="0"
         sodipodi:role="line"
         id="tspan1477">Poisson simulation of the response of a</tspan></text>
<text
       transform="matrix(1,0,0,-1,430.87,467.35)"
       style="font-variant:normal;font-weight:normal;font-size:12px;font-family:Calibri;-inkscape-font-specification:Calibri;writing-mode:lr-tb;fill:#000000;fill-opacity:1;fill-rule:nonzero;stroke:none"
       id="text1483"><tspan
         x="0 6.348 12.588 16.656 22.632 28.896 32.964001 35.723999 42.048 51.563999 57.540001 61.632 65.82 68.580002 73.512001"
         y="0"
         sodipodi:role="line"
         id="tspan1481">potentiometric </tspan></text>
<text
       transform="matrix(1,0,0,-1,164.18,446.83)"
       style="font-variant:normal;font-weight:normal;font-size:12px;font-family:Calibri;-inkscape-font-specification:Calibri;writing-mode:lr-tb;fill:#000000;fill-opacity:1;fill-rule:nonzero;stroke:none"
       id="text1487"><tspan
         x="0 2.76 9.0839996"
         y="0"
         sodipodi:role="line"
         id="tspan1485">ion</tspan></text>
<text
       transform="matrix(1,0,0,-1,179.66,446.83)"
       style="font-variant:normal;font-weight:normal;font-size:12px;font-family:Calibri;-inkscape-font-specification:Calibri;writing-mode:lr-tb;fill:#000000;fill-opacity:1;fill-rule:nonzero;stroke:none"
       id="text1491"><tspan
         x="0"
         y="0"
         id="tspan1489">-</tspan></text>
<text
       transform="matrix(1,0,0,-1,183.38,446.83)"
       style="font-variant:normal;font-weight:normal;font-size:12px;font-family:Calibri;-inkscape-font-specification:Calibri;writing-mode:lr-tb;fill:#000000;fill-opacity:1;fill-rule:nonzero;stroke:none"
       id="text1495"><tspan
         x="0 4.6919999 10.668 13.32 19.296 24.372 28.427999 31.188 36.612 42.588001 47.736 52.428001 58.403999 64.764 69.323997 75.648003"
         y="0"
         sodipodi:role="line"
         id="tspan1493">selective sensor</tspan></text>
<text
       transform="matrix(1,0,0,-1,268.49,446.83)"
       style="font-variant:normal;font-weight:normal;font-size:12px;font-family:Calibri;-inkscape-font-specification:Calibri;writing-mode:lr-tb;fill:#000000;fill-opacity:1;fill-rule:nonzero;stroke:none"
       id="text1499"><tspan
         x="0 4.0679998 10.392 15.456 21.804001 27.780001 32.855999 37.043999 43.02 48.792 53.484001 56.243999 62.580002 68.232002 73.248001 79.596001 83.783997 86.543999 96.132004 101.904 106.092 111.528 116.652 119.412 125.652"
         y="0"
         sodipodi:role="line"
         id="tspan1497">to decreasing primary ion</tspan></text>
<text
       transform="matrix(1,0,0,-1,405.79,446.83)"
       style="font-variant:normal;font-weight:normal;font-size:12px;font-family:Calibri;-inkscape-font-specification:Calibri;writing-mode:lr-tb;fill:#000000;fill-opacity:1;fill-rule:nonzero;stroke:none"
       id="text1503"><tspan
         x="0 5.7480001 10.824 14.868 17.628 23.052 25.812 29.856001 32.616001 38.591999"
         y="0"
         sodipodi:role="line"
         id="tspan1501">activities</tspan></text>
<text
       transform="matrix(1,0,0,-1,449.14,446.83)"
       style="font-variant:normal;font-weight:normal;font-size:12px;font-family:Calibri;-inkscape-font-specification:Calibri;writing-mode:lr-tb;fill:#000000;fill-opacity:1;fill-rule:nonzero;stroke:none"
       id="text1507"><tspan
         x="0 3"
         y="0"
         sodipodi:role="line"
         id="tspan1505">. </tspan></text>
<text
       transform="matrix(1,0,0,-1,457.3,446.83)"
       style="font-variant:normal;font-weight:normal;font-size:12px;font-family:Calibri;-inkscape-font-specification:Calibri;writing-mode:lr-tb;fill:#000000;fill-opacity:1;fill-rule:nonzero;stroke:none"
       id="text1511"><tspan
         x="0"
         y="0"
         id="tspan1509">R</tspan></text>
<text
       transform="matrix(1,0,0,-1,463.78,446.83)"
       style="font-variant:normal;font-weight:normal;font-size:12px;font-family:Calibri;-inkscape-font-specification:Calibri;writing-mode:lr-tb;fill:#000000;fill-opacity:1;fill-rule:nonzero;stroke:none"
       id="text1515"><tspan
         x="0 5.9759998 8.7360001 14.508 18.576 21.336 26.76 32.736 35.375999 40.655998"
         y="0"
         sodipodi:role="line"
         id="tspan1513">elatively </tspan></text>
<text
       transform="matrix(1,0,0,-1,164.18,426.31)"
       style="font-variant:normal;font-weight:normal;font-size:12px;font-family:Calibri;-inkscape-font-specification:Calibri;writing-mode:lr-tb;fill:#000000;fill-opacity:1;fill-rule:nonzero;stroke:none"
       id="text1519"><tspan
         x="0 2.76 8.5080004 12.696 18.348 24.348 27.576 33.324001 38.256001 42.324001 45.084 50.507999 53.268002 57.312 62.591999 65.82 72.143997 75.804001 79.008003 81.648003 87.996002 92.064003 97.944 102.132 105.852 111.828 116.04 118.68 125.028 130.67999 133.896 136.536 142.86 149.244 153.804 157.032 159.79201 164.35201 167.58 177.168 182.916 185.67599 191.94 196.008 201.756 204.51601 210.76801 216.744 223.008 226.23599"
         y="0"
         sodipodi:role="line"
         id="tspan1517">large activity of interfering ions is maintained (</tspan></text>
<text
       transform="matrix(1,0,0,-1,394.27,426.31)"
       style="font-style:italic;font-variant:normal;font-weight:normal;font-size:12px;font-family:Calibri;-inkscape-font-specification:Calibri-Italic;writing-mode:lr-tb;fill:#000000;fill-opacity:1;fill-rule:nonzero;stroke:none"
       id="text1523"><tspan
         x="0"
         y="0"
         id="tspan1521">a</tspan></text>
<text
       transform="matrix(1,0,0,-1,400.39,425.35)"
       style="font-variant:normal;font-weight:normal;font-size:8.03999996px;font-family:Calibri;-inkscape-font-specification:Calibri;writing-mode:lr-tb;fill:#000000;fill-opacity:1;fill-rule:nonzero;stroke:none"
       id="text1527"><tspan
         x="0"
         y="0"
         id="tspan1525">J</tspan></text>
<text
       transform="matrix(1,0,0,-1,406.15,426.31)"
       style="font-variant:normal;font-weight:normal;font-size:12px;font-family:Calibri;-inkscape-font-specification:Calibri;writing-mode:lr-tb;fill:#000000;fill-opacity:1;fill-rule:nonzero;stroke:none"
       id="text1531"><tspan
         x="0 5.8800001 9.1079998 15.192 24.708 35.015999 38.652 41.723999 45.792 52.032001 55.259998 60.66 66.636002 72.648003 78.888 81.996002 86.064003 92.304001"
         y="0"
         sodipodi:role="line"
         id="tspan1529">= 1mM) to keep the</tspan></text>
<text
       transform="matrix(1,0,0,-1,164.18,405.79)"
       style="font-variant:normal;font-weight:normal;font-size:12px;font-family:Calibri;-inkscape-font-specification:Calibri;writing-mode:lr-tb;fill:#000000;fill-opacity:1;fill-rule:nonzero;stroke:none"
       id="text1535"><tspan
         x="0 8.5200005 14.868 21.191999 23.952 29.976 32.723999 37.764 43.740002 46.5"
         y="0"
         sodipodi:role="line"
         id="tspan1533">whole cell</tspan></text>
<text
       transform="matrix(1,0,0,-1,216.29,405.79)"
       style="font-style:italic;font-variant:normal;font-weight:normal;font-size:12px;font-family:Calibri;-inkscape-font-specification:Calibri-Italic;writing-mode:lr-tb;fill:#000000;fill-opacity:1;fill-rule:nonzero;stroke:none"
       id="text1539"><tspan
         x="0"
         y="0"
         id="tspan1537">R</tspan></text>
<text
       transform="matrix(1,0,0,-1,225.53,405.79)"
       style="font-variant:normal;font-weight:normal;font-size:12px;font-family:Calibri;-inkscape-font-specification:Calibri;writing-mode:lr-tb;fill:#000000;fill-opacity:1;fill-rule:nonzero;stroke:none"
       id="text1543"><tspan
         x="0 5.04 11.28 17.628 22.32 26.375999 32.015999 38.363998 42.431999 45.456001 48.071999 55.02 61.271999 67.620003 73.596001 77.807999 83.688004 90.036003 92.783997 95.543999 101.292 106.728 112.704 116.784 119.532 123.492 129.84 132.60001 137.64 143.03999 149.388 155.364 160.056 164.748 167.496 173.58 179.616 185.7 188.48399 195.084 204.672 207.672"
         y="0"
         sodipodi:role="line"
         id="tspan1541">constant. Adhered layer thickness 100 μm, </tspan></text>
<text
       transform="matrix(1,0,0,-1,436.15,405.79)"
       style="font-style:italic;font-variant:normal;font-weight:normal;font-size:12px;font-family:Calibri;-inkscape-font-specification:Calibri-Italic;writing-mode:lr-tb;fill:#000000;fill-opacity:1;fill-rule:nonzero;stroke:none"
       id="text1547"><tspan
         x="0"
         y="0"
         id="tspan1545">K</tspan></text>
<text
       transform="matrix(1,0,0,-1,442.27,404.83)"
       style="font-variant:normal;font-weight:normal;font-size:8.03999996px;font-family:Calibri;-inkscape-font-specification:Calibri;writing-mode:lr-tb;fill:#000000;fill-opacity:1;fill-rule:nonzero;stroke:none"
       id="text1551"><tspan
         x="0 2.0399799"
         y="0"
         sodipodi:role="line"
         id="tspan1549">IJ</tspan></text>
<text
       transform="matrix(1,0,0,-1,449.62,405.79)"
       style="font-variant:normal;font-weight:normal;font-size:12px;font-family:Calibri;-inkscape-font-specification:Calibri;writing-mode:lr-tb;fill:#000000;fill-opacity:1;fill-rule:nonzero;stroke:none"
       id="text1555"><tspan
         x="0 5.9759998 8.6400003 14.724"
         y="0"
         sodipodi:role="line"
         id="tspan1553">= 10</tspan></text>
<text
       transform="matrix(1,0,0,-1,470.5,409.75)"
       style="font-variant:normal;font-weight:normal;font-size:8.03999996px;font-family:Calibri;-inkscape-font-specification:Calibri;writing-mode:lr-tb;fill:#000000;fill-opacity:1;fill-rule:nonzero;stroke:none"
       id="text1559"><tspan
         x="0"
         y="0"
         id="tspan1557">-</tspan></text>
<text
       transform="matrix(1,0,0,-1,472.9,409.75)"
       style="font-variant:normal;font-weight:normal;font-size:8.03999996px;font-family:Calibri;-inkscape-font-specification:Calibri;writing-mode:lr-tb;fill:#000000;fill-opacity:1;fill-rule:nonzero;stroke:none"
       id="text1563"><tspan
         x="0"
         y="0"
         id="tspan1561">3</tspan></text>
<text
       transform="matrix(1,0,0,-1,476.98,405.79)"
       style="font-variant:normal;font-weight:normal;font-size:12px;font-family:Calibri;-inkscape-font-specification:Calibri;writing-mode:lr-tb;fill:#000000;fill-opacity:1;fill-rule:nonzero;stroke:none"
       id="text1567"><tspan
         x="0"
         y="0"
         id="tspan1565">.</tspan></text>
</g></svg>